<?xml version="1.0" encoding="utf-8"?>
<!-- Generator: Adobe Illustrator 16.0.0, SVG Export Plug-In . SVG Version: 6.00 Build 0)  -->
<!DOCTYPE svg PUBLIC "-//W3C//DTD SVG 1.1//EN" "http://www.w3.org/Graphics/SVG/1.1/DTD/svg11.dtd">
<svg version="1.1" id="Layer_1" xmlns="http://www.w3.org/2000/svg" xmlns:xlink="http://www.w3.org/1999/xlink" x="0px" y="0px"
	 width="137.348px" height="158.56px" viewBox="-496.236 -228.646 137.348 158.56"
	 enable-background="new -496.236 -228.646 137.348 158.56" xml:space="preserve">
<g id="Layer_2">
</g>
<g>
	<path fill="#FF6666" d="M-427.563-228.646v158.56l-68.673-39.62V-189L-427.563-228.646z M-435.87-161.608h-27.547v-8.438
		l27.547-15.891v-28.3l-52.057,30.039v69.711l52.057,30.041v-28.275l-27.547-15.915v-8.489l27.547,0.025V-161.608L-435.87-161.608z"
		/>
	<polygon fill="#FFFFFF" points="-435.87,-161.608 -435.87,-137.099 -463.417,-137.125 -463.417,-128.635 -435.87,-112.719 
		-435.87,-84.445 -487.927,-114.484 -487.927,-184.197 -435.87,-214.236 -435.87,-185.937 -463.417,-170.046 -463.417,-161.608 	"/>
	<path fill="#EA4848" d="M-427.563-70.087v-158.56L-358.888-189v79.292L-427.563-70.087z M-391.706-161.608h-27.547v24.509
		l27.547-0.024v8.49l-27.547,15.916v28.272l52.057-30.039v-69.713l-52.057-30.039v28.3l27.547,15.891V-161.608z"/>
	<polygon fill="#DFDFDF" points="-391.706,-161.608 -391.706,-170.046 -419.253,-185.937 -419.253,-214.236 -367.196,-184.197 
		-367.196,-114.484 -419.253,-84.445 -419.253,-112.719 -391.706,-128.635 -391.706,-137.125 -419.253,-137.099 -419.253,-161.608 	
		"/>
</g>
</svg>
