<?xml version="1.0" encoding="utf-8"?>
<!-- Generator: Adobe Illustrator 16.0.0, SVG Export Plug-In . SVG Version: 6.00 Build 0)  -->
<!DOCTYPE svg PUBLIC "-//W3C//DTD SVG 1.1//EN" "http://www.w3.org/Graphics/SVG/1.1/DTD/svg11.dtd">
<svg version="1.1" id="Layer_1" xmlns="http://www.w3.org/2000/svg" xmlns:xlink="http://www.w3.org/1999/xlink" x="0px" y="0px"
	 width="122.156px" height="149.252px" viewBox="0 0 122.156 149.252" enable-background="new 0 0 122.156 149.252"
	 xml:space="preserve">
<path fill="#FFFFFF" d="M77.571,135.058c-0.7-1.575-2.154-3.66-2.967-5.686c-0.224-1.239,0.468-1.411,0.468-1.411
	c-0.898-0.514-0.842-2.173-0.827-2.433c0.002-0.015,0.003-0.025,0.001-0.031c0-0.001,0.001-0.007,0.001-0.007
	c-0.001,0-0.002,0-0.004,0s-0.003,0-0.005,0.002c-0.406,0.015-0.979,0.981-0.979,0.981c0.088,1.177,0.26,2.027,0.464,2.646
	c0.241,1.187,0.773,2.346,1.303,3.368c1.927,3.717,4.724,8.164,3.226,12.506c-0.341,0.987,0.115,0.125,0.27-0.322
	C79.671,141.343,78.968,138.201,77.571,135.058z"/>
<path fill="#FFFFFF" d="M73.005,136.539c-0.012-0.057-0.027-0.094-0.044-0.094c-0.032-0.001-0.063,0.003-0.095,0.008
	c-0.053-0.031-0.106-0.063-0.161-0.091c0.001,0,0.007,0.054,0.017,0.13c-0.21,0.082-0.404,0.256-0.547,0.399
	c-0.8,0.802-1.103,2.061-1.349,3.123c-0.075,0.318-0.046,0.694-0.027,1.017c0.003,0.055,0.037,0.546,0.102,0.267
	c0.124-0.532,0.271-1.102,0.49-1.635c0.031,0.125,0.066,0.249,0.094,0.359c0.24,0.958,0.695,1.438,1.686,1.631
	c0.354,0.069,0.6,0.143,0.848-0.12c0.394-0.416,0.659-0.941,0.699-1.514C74.812,138.664,74.131,137.275,73.005,136.539z
	 M73.072,140.238c-0.262-0.026-0.517-0.089-0.766-0.172c-0.137-0.045-0.263-0.113-0.388-0.183c-0.109-0.062-0.422-0.433-0.383-0.279
	c-0.005-0.019-0.026-0.08-0.053-0.151c0.193-0.421,0.434-0.814,0.755-1.137c0.177-0.177,0.458-0.388,0.724-0.384
	c0.021,0,0.037-0.058,0.05-0.147c0.009,0.009,0.018,0.02,0.028,0.025c0.238,0.123,0.457,0.28,0.666,0.447
	c0.222,0.176,0.413,0.387,0.583,0.611c0.015,0.021,0.025,0.037,0.036,0.055c-0.033,0.161-0.096,0.32-0.16,0.465
	C73.919,139.942,73.657,140.3,73.072,140.238z M74.349,138.96C74.434,139.109,74.37,139.125,74.349,138.96L74.349,138.96z"/>
<path fill="#FFFFFF" d="M71.71,139.42c-1.144,1.773-3.588,2.663-5.517,3.128c-2.453,0.592-5.041,0.467-7.521,0.144
	c-0.795-0.104-1.412-0.334-1.897-0.686c0.03-0.014,0.046-0.023,0.046-0.023c-0.514-0.287-0.929-0.908-1.264-1.727
	c-0.151-0.432-0.264-0.918-0.348-1.462c0.006,0.038-0.027,0.104-0.074,0.184c-1.021-3.777-0.979-9.576-0.979-9.576
	c-0.447,5.932-0.108,9.128,0.458,10.831c0.288,1.726,0.955,3.4,2.812,3.721c2.816,0.487,5.746,0.535,8.534-0.137
	c1.889-0.455,4.192-1.481,5.295-3.192C71.417,140.374,71.779,139.313,71.71,139.42z"/>
<path fill="#FFFFFF" d="M28.589,136.718L28.589,136.718c-0.001,0-0.622,0.01-1.829,0.321c-0.559,0.132-1.11,0.29-1.646,0.481
	c-0.053,0.02-0.105,0.049-0.158,0.087c-0.892,0.324-1.939,0.764-3.15,1.369c0,0-3.346,0.526-3.129-2.076
	c0.217-2.604,4.028-3.595,4.028-3.595s-3.005-0.465-5.082,4.307c0,0-0.155,1.426,1.518,2.263c1.673,0.836,4.572-0.605,5.051-1.085
	c0.323-0.323,2.172-0.83,3.883-1.126c2.48-0.2,5.027,0.163,7.308,1.097c0.283,0.116,1.009-1.034,1.105-0.995
	C34.024,136.757,31.255,136.41,28.589,136.718z"/>
<path fill="#FFFFFF" d="M26.92,133.37c-1.118-0.733-1.751-1.903-1.972-3.193c0.005-0.766,0.225-1.521,0.776-2.008
	c1.146-0.392,3.316-0.773,4.999,1.052c0.017,0.019,0.036,0.037,0.053,0.056c0.063,0.072,0.127,0.148,0.189,0.226
	c0.026,0.033,0.05,0.064,0.074,0.096c0.065,0.085,0.129,0.172,0.192,0.265c0.007,0.011,0.014,0.021,0.021,0.031
	c0.071,0.106,0.14,0.217,0.208,0.333c0.069,0.12,0.106,0.197,0.106,0.197s0.124-2.448-2.448-3.378
	c-2.572-0.93-4.338,0.744-4.338,0.744c-2.82,3.13,0.164,5.783,0.164,5.783l0.001-0.003c0.089,0.087,0.183,0.172,0.28,0.253
	c-4.523-1.774-3.234-4.949-3.234-4.949c-2.278,2.277-3.874,0.527-4.555-0.495c-0.267-0.401-0.162-0.748,0.064-1.024
	c0.312-0.151,0.615-0.347,0.742-0.333c-0.105-0.011-0.209-0.031-0.314-0.044c0.287-0.194,0.562-0.303,0.562-0.303
	c-0.855-0.249-1.378-0.109-1.696,0.121c-2.518-0.488-4.985-1.504-7.181-2.749c-2.451-1.39-4.552-3.309-6.183-5.601
	c-0.663-0.933-2.007-2.741-2.024-3.919c-0.01-0.701,0.333-2.289,1.102-2.513c0.233-0.068,1.548-0.623,0.668-0.365
	c-1.721,0.501-3.819,1.752-2.988,3.878c1.264,3.234,3.582,5.928,6.372,7.948c2.777,2.011,6.328,3.498,9.775,3.979
	c-0.01,0.036-0.014,0.057-0.014,0.057s-0.774,0.558,0.744,2.076c1.519,1.52,3.409,0.744,3.409,0.744
	c1.129,5.046,6.579,5.303,8.971,5.164c0.425,0.055,0.842,0.084,1.239,0.087c0.401,0.003,1.026-0.773,1.209-0.772
	C30.164,134.797,28.367,134.318,26.92,133.37z"/>
<path fill="#FFFFFF" d="M50.655,138.015c0.064,0.69,0.237,1.367,0.449,2.024c0.139,0.431,0.257,0.718,0.096,1.169
	c0.067-0.187,0.304-0.171-0.012,0.019c-0.039,0.023-0.079,0.044-0.119,0.063c-0.385,0.194-0.765,0.932-0.986,1.042
	c0.735-0.369,1.5-1.063,1.948-1.748c0.366-0.562,0.351-0.972,0.125-1.597c-0.233-0.643-0.386-1.342-0.449-2.024
	C51.727,137.178,50.62,137.629,50.655,138.015L50.655,138.015z"/>
<path fill="#FFFFFF" d="M51.809,140.84c-2.326,2.033-6.589,1.157-7.544-1.818c-0.458-1.424-0.149-3.034-0.023-4.6
	c0.902-0.634,1.662-1.412,2.096-2.504c0.071-0.18,0.422-1.578,0.207-1.036c-0.438,1.1-1.277,1.818-2.258,2.395
	c-0.016-1.025-0.219-2.005-0.898-2.867c-0.034-0.043-1.155,0.921-1.052,1.052c0.563,0.716,0.808,1.521,0.893,2.37
	c-1.976,0.952-4.138,1.689-4.749,3.807c-0.479,1.661,1.558,2.067,2.709,1.308c0.831-0.548,1.47-1.46,1.971-2.396
	c-0.135,1.605-0.262,3.218,0.522,4.596c1.542,2.711,5.707,2.047,7.687,0.316C51.553,141.301,52.5,140.236,51.809,140.84z
	 M41.408,137.665c-0.708,0.467-1.469,0.351-2.141-0.097c-0.082-0.056-0.156-0.123-0.223-0.197c0.047-0.034,0.093-0.068,0.137-0.1
	c1.2-0.872,2.719-1.47,4.08-2.237c-0.007,0.219-0.019,0.438-0.034,0.66C42.747,136.47,42.146,137.179,41.408,137.665z"/>
<path fill="#FFFFFF" d="M46.472,136.109c0.423,0.384,0.904,0.937,0.93,1.533c0.001,0.029,0.209-0.132,0.191-0.116
	c0.136-0.111,0.263-0.232,0.387-0.356c0.108-0.108,0.481-0.402,0.473-0.578c-0.024-0.598-0.506-1.15-0.929-1.534
	C47.424,134.967,46.406,136.049,46.472,136.109L46.472,136.109z"/>
<path fill="#FFFFFF" d="M10.149,118.786c0.33,0.468,0.681,1.111,0.577,1.698c-0.005,0.029,0.233-0.083,0.212-0.072
	c0.156-0.079,0.307-0.17,0.455-0.265c0.128-0.082,0.556-0.289,0.586-0.463c0.104-0.588-0.247-1.232-0.577-1.698
	C11.325,117.877,10.098,118.714,10.149,118.786L10.149,118.786z"/>
<path fill="#FFFFFF" d="M11.552,120.107c0.33,0.467,0.681,1.11,0.577,1.699c-0.005,0.028,0.233-0.085,0.212-0.073
	c0.156-0.08,0.307-0.17,0.455-0.265c0.129-0.082,0.556-0.289,0.587-0.464c0.104-0.587-0.247-1.231-0.578-1.697
	C12.727,119.197,11.5,120.035,11.552,120.107L11.552,120.107z"/>
<path fill="#FFFFFF" d="M13.682,131.243c0.331,0.467,0.682,1.11,0.578,1.698c-0.005,0.029,0.233-0.084,0.212-0.073
	c0.156-0.079,0.307-0.17,0.455-0.264c0.128-0.082,0.556-0.289,0.586-0.464c0.104-0.587-0.247-1.231-0.577-1.697
	C14.857,130.333,13.63,131.171,13.682,131.243L13.682,131.243z"/>
<path fill="#FFFFFF" d="M15.084,132.564c0.33,0.467,0.681,1.11,0.577,1.698c-0.005,0.028,0.233-0.084,0.212-0.073
	c0.156-0.079,0.307-0.17,0.455-0.264c0.128-0.083,0.556-0.289,0.586-0.464c0.104-0.588-0.247-1.231-0.577-1.698
	C16.26,131.654,15.032,132.491,15.084,132.564L15.084,132.564z"/>
<path fill="#FFFFFF" d="M113.459,128.235c0.569,0.052,1.287,0.201,1.667,0.661c0.018,0.022,0.087-0.232,0.082-0.209
	c0.041-0.171,0.069-0.344,0.093-0.518c0.021-0.151,0.14-0.611,0.027-0.747c-0.379-0.46-1.098-0.61-1.667-0.66
	C113.527,126.751,113.37,128.228,113.459,128.235L113.459,128.235z"/>
<path fill="#FFFFFF" d="M118.926,117.2c-1.278,1.813-6.182,4.137-8.661,4.563c-0.255,0.044-0.475,0.106-0.678,0.177
	c0.395-0.92,0.571-1.968,0.549-2.745c0-0.009-0.001-0.017-0.001-0.025c0.649,0.01,1.295-0.233,1.873-0.57
	c0.235-0.138,0.734-0.969,0.718-1.243c-0.082-1.329-0.827-2.1-2.142-2.277c-0.522-0.069-0.732,0.174-0.93,0.548
	c-0.048,0.092-0.098,0.193-0.148,0.298c-0.017,0.034-0.033,0.066-0.05,0.102c-0.337,0.672-0.247,1.681-0.123,2.713l0.035,0.286
	c0.148,1.198,0.29,2.386-0.181,3.084c-0.978,0.503-1.189,1.313-1.23,1.72c-0.002,0.002-0.005,0.006-0.008,0.008
	c0.003-0.002,0.005-0.003,0.008-0.005c-0.016,0.151-0.008,0.248-0.008,0.248c1.387-0.604,0.31-0.558,4.284-1.626
	c0.81-0.219,1.575-0.521,2.285-0.862c-0.898,1.07-1.731,2.313-2.846,3.534c-1.571,1.151-4.408,2.755-6.202,0.96
	c-2.587-2.587-7.467-8.366-7.467-8.366s-0.31,0.651,0,0.961c0.31,0.311,5.577,6.229,6.476,7.901
	c0.898,1.674-0.992,4.587-3.378,4.587c0,0-1.611,0.123-2.541-1.457c0,0-0.496,0.435-0.248,0.992s0.712,1.363-0.155,1.828
	c-0.868,0.465-1.829,0.867-2.417-0.559c-0.588-1.425-0.588-1.022-0.588-1.022s0.434,3.812-3.595,4.338c0,0-2.913,0.373-3.812-1.89
	c0,0-0.588,0.744-0.402,1.332c0,0,2.347,2.04,2.711,4.019c-2.454,5.298-9.379,7.924-14.62,8.864
	c-4.572,0.822-10.22,1.163-14.531-0.938c-1.039-0.507-1.969-1.264-2.587-2.247c-0.18-0.286-0.316-0.6-0.423-0.92
	c-0.101-0.303-0.09-0.613-0.084-0.079c-0.004-0.355-0.127-1.075-0.118-0.293c0.075,6.395,9.853,6.293,14.099,6.023
	c5.365-0.34,10.849-1.836,15.017-5.36c1.424-1.204,2.902-2.822,3.58-4.602c0.06-0.155,0.022-0.396-0.019-0.615
	c0.142-0.725,0.202-1.569-0.082-2.179c0,0,3.533,1.115,5.206-2.819c0,0,2.2,1.177,3.037,0.062s0.837-1.705,0.837-1.705
	s1.487,0.559,2.571,0.279c1.084-0.279,3.099-1.859,3.099-2.789s0-1.301,0-1.301s1.576,0.556,3.442,0.132
	c3.052-0.443,5.043-3.438,6.381-5.214c1.382-1.834,3.189-3.641,3.953-4.381c0.236-0.216,0.37-0.352,0.37-0.352L118.926,117.2z
	 M109.921,116.369c0,0,1.216,0.082,1.87,1.373c0,0-1.353,0.51-1.685,0.179C110.106,117.921,109.735,117.445,109.921,116.369z"/>
<path fill="#FFFFFF" d="M121.608,125.289c-0.317-0.314-0.787-0.527-1.223-0.615c0.001,0-0.063,0.579-0.033,0.902
	c-0.174,0.209-0.323,0.427-0.287,0.611c0.121,0.625,0.085,1.287-0.001,1.912c-0.306,2.228-2.441,3.201-4.414,3.679
	c-0.395,0.096-0.506,1.23-0.744,1.288c2.513-0.608,4.332-2.052,5.373-4.425c0.141-0.321,0.261-0.656,0.359-0.998
	c0.425,0.254,0.976,0.228,1.438,0.066c0.019-0.021,0.027-0.047,0.025-0.078C122.212,126.853,122.202,125.88,121.608,125.289z
	 M120.846,126.643c0.03-0.234,0.049-0.47,0.052-0.705c0.299,0.122,0.58,0.294,0.805,0.517c0.058,0.059,0.105,0.124,0.149,0.191
	c-0.021,0.004-0.04,0.011-0.06,0.015C121.477,126.733,121.145,126.741,120.846,126.643z"/>
<path fill="#FFFFFF" d="M99.295,137.576c0.079,0.604,0.125,1.622-0.773,1.347c-0.006,0.001-0.012,0.001-0.017,0.001
	c0.052,1.112-0.829,1.245-1.76,0.894c-0.017-0.011-0.035-0.014-0.054-0.01c-0.582,2.703-3.391,3.882-5.886,3.949
	c0.089-0.002,0.406,0.392,0.604,0.386c2.556-0.068,5.039-1.159,5.865-3.748c0.117-0.366,1.503,0.433,1.831-0.662
	c0.178-0.593,0.22-0.117,0.678-0.491c0.29-0.235,0.19-0.961,0.148-1.282C99.908,137.771,99.308,137.679,99.295,137.576
	L99.295,137.576z"/>
<path fill="#FFFFFF" d="M82.239,128.621c-1.368-0.156-1.483,1.151-1.479,2.23c-0.242-0.466-0.585-0.866-1.095-1.18
	c-0.563-0.345-1.274-0.551-1.936-0.586c0.012,0,0.049,0.718,0.167,0.725c0.934,0.05,2.273,0.503,2.867,1.362
	c0.002,0.124,0.004,0.245,0.004,0.354c0,0.083,0.015,0.171,0.035,0.257c0.027,0.173,0.067,0.291,0.111,0.369
	c0.006,0.015,0.012,0.023,0.018,0.03c0.117,0.178,0.252,0.118,0.252,0.118l0,0c0.021,0.046,0.03,0.045,0.015-0.049
	c0.031-0.106,0.101-0.374,0.101-0.651c0-0.255-0.243-0.467-0.383-0.569c0.005-0.427,0.061-0.844,0.281-1.189
	c0.244-0.382,0.772-0.547,1.207-0.497C82.381,129.343,82.37,128.636,82.239,128.621z"/>
<path fill="#FFFFFF" d="M51.412,145.061c-1.321-0.391-1.66,0.878-1.842,1.941c-0.158-0.5-0.427-0.954-0.875-1.35
	c-0.495-0.438-1.161-0.765-1.805-0.913c0.011,0.003-0.077,0.716,0.039,0.743c0.91,0.21,2.152,0.888,2.588,1.837
	c-0.02,0.122-0.039,0.242-0.057,0.35c-0.015,0.082-0.015,0.171-0.01,0.259c-0.003,0.176,0.016,0.298,0.046,0.383
	c0.004,0.016,0.008,0.026,0.012,0.033c0.084,0.194,0.229,0.16,0.229,0.16l0,0c0.012,0.049,0.021,0.05,0.023-0.046
	c0.049-0.1,0.164-0.351,0.211-0.624c0.044-0.25-0.158-0.501-0.278-0.626c0.079-0.42,0.205-0.822,0.482-1.124
	c0.306-0.334,0.855-0.405,1.275-0.281C51.426,145.795,51.538,145.098,51.412,145.061z"/>
<path fill="#FFFFFF" d="M11.418,106.193c-0.812-1.388-2.114-0.58-3.119,0.18c0.266-0.552,0.4-1.153,0.335-1.848
	c-0.071-0.768-0.377-1.578-0.806-2.22c0.007,0.012-0.638,0.549-0.561,0.664c0.606,0.906,1.12,2.476,0.733,3.632
	c-0.115,0.089-0.226,0.175-0.328,0.251c-0.078,0.059-0.149,0.134-0.216,0.213c-0.143,0.146-0.224,0.266-0.267,0.362
	c-0.009,0.017-0.014,0.028-0.016,0.038c-0.083,0.233,0.066,0.318,0.066,0.318l0,0c-0.028,0.051-0.021,0.06,0.057-0.02
	c0.121-0.046,0.42-0.167,0.679-0.362c0.238-0.178,0.267-0.553,0.264-0.755c0.402-0.294,0.832-0.535,1.309-0.57
	c0.528-0.039,1.052,0.339,1.31,0.779C10.843,106.83,11.496,106.326,11.418,106.193z"/>
<path fill="#FFFFFF" d="M6.152,108.96c-0.148,0.088-0.299,0.191-0.425,0.31c-0.592,0.555-1.5,1.671-0.991,2.38
	c0,0-0.001,0.005-0.001,0.005c0.016,0.02,0.031,0.035,0.046,0.053c0.02,0.022,0.039,0.045,0.062,0.066
	c0.461,0.474,0.7,0.193,0.916-0.022c0.232-0.232,0.116-0.303,0.116-0.303c-0.207,0.028-0.393-0.097-0.532-0.235
	c-0.217-0.3-0.201-0.688,0.009-1.119c0.138-0.284,0.337-0.544,0.542-0.782c0.07-0.082,0.144-0.159,0.219-0.237
	c0.015-0.015,0.145-0.141,0.071-0.071C6.274,108.918,6.263,108.896,6.152,108.96z"/>
<path fill="#FFFFFF" d="M36.523,128.564c-0.148,0.087-0.299,0.19-0.425,0.309c-0.592,0.555-1.5,1.671-0.991,2.381
	c0,0-0.001,0.005-0.001,0.005c0.016,0.02,0.031,0.034,0.046,0.052c0.02,0.022,0.039,0.046,0.062,0.067
	c0.461,0.474,0.7,0.192,0.916-0.023c0.232-0.232,0.116-0.302,0.116-0.302c-0.207,0.027-0.393-0.098-0.532-0.235
	c-0.217-0.301-0.201-0.688,0.009-1.119c0.138-0.285,0.337-0.544,0.542-0.782c0.07-0.082,0.144-0.16,0.219-0.238
	c0.015-0.014,0.145-0.141,0.071-0.07C36.645,128.521,36.634,128.499,36.523,128.564z"/>
<path fill="#FFFFFF" d="M41.626,143.563c-0.124,0.121-0.244,0.257-0.338,0.402c-0.441,0.682-1.053,1.983-0.388,2.549
	c0,0.001,0,0.006,0,0.006c0.02,0.015,0.039,0.025,0.058,0.04c0.024,0.017,0.048,0.034,0.076,0.05
	c0.562,0.348,0.726,0.019,0.883-0.244c0.169-0.281,0.04-0.321,0.04-0.321c-0.194,0.077-0.405,0-0.573-0.1
	c-0.283-0.239-0.361-0.619-0.262-1.089c0.065-0.309,0.196-0.608,0.338-0.89c0.048-0.096,0.102-0.189,0.155-0.283
	c0.011-0.019,0.106-0.172,0.052-0.086C41.734,143.492,41.718,143.473,41.626,143.563z"/>
<path fill="#FFFFFF" d="M16.433,110.72c0.02-0.048,0.044-0.096,0.061-0.144c-0.011,0.032-0.039,0.074-0.076,0.121
	c-0.552-0.54-1.366-0.66-2.077-0.368c-0.108,0.045-0.215,0.277-0.271,0.37c-0.013,0.021-0.144,0.259-0.103,0.242
	c0.678-0.278,1.456-0.152,1.994,0.336c-0.137,0.116-0.291,0.216-0.454,0.29c-0.702,0.323-1.548,0.115-2.237-0.125
	c-0.104-0.036-0.404,0.624-0.405,0.624c0.927,0.324,2.084,0.496,2.844-0.277c0.229-0.232,0.449-0.521,0.612-0.826
	C16.397,110.854,16.45,110.757,16.433,110.72z"/>
<path fill="#FFFFFF" d="M29.715,119.92c0.02-0.048,0.044-0.095,0.061-0.144c-0.011,0.033-0.039,0.074-0.076,0.122
	c-0.552-0.54-1.366-0.661-2.077-0.368c-0.108,0.044-0.215,0.277-0.271,0.37c-0.013,0.021-0.144,0.259-0.103,0.242
	c0.678-0.279,1.456-0.152,1.994,0.335c-0.137,0.117-0.291,0.216-0.454,0.29c-0.702,0.323-1.548,0.116-2.237-0.125
	c-0.104-0.036-0.404,0.625-0.405,0.624c0.927,0.324,2.084,0.497,2.844-0.276c0.229-0.233,0.449-0.521,0.612-0.826
	C29.679,120.055,29.732,119.957,29.715,119.92z"/>
<path fill="#FFFFFF" d="M45.228,125.951c0.02-0.048,0.045-0.096,0.061-0.144c-0.011,0.032-0.039,0.073-0.076,0.122
	c-0.552-0.541-1.366-0.662-2.077-0.369c-0.108,0.045-0.215,0.278-0.271,0.37c-0.013,0.021-0.144,0.26-0.103,0.242
	c0.678-0.279,1.456-0.152,1.994,0.335c-0.137,0.118-0.291,0.216-0.454,0.291c-0.702,0.323-1.549,0.116-2.237-0.125
	c-0.104-0.036-0.403,0.624-0.405,0.624c0.926,0.323,2.084,0.496,2.844-0.277c0.229-0.232,0.449-0.521,0.612-0.825
	C45.192,126.085,45.245,125.988,45.228,125.951z"/>
<path fill="#FFFFFF" d="M85.508,122.035c-0.015-0.05-0.027-0.103-0.045-0.149c0.013,0.031,0.018,0.082,0.019,0.142
	c-0.769-0.065-1.474,0.359-1.836,1.037c-0.055,0.104,0.011,0.352,0.026,0.458c0.003,0.024,0.054,0.292,0.075,0.253
	c0.345-0.646,1.026-1.045,1.751-1.011c-0.031,0.179-0.086,0.352-0.165,0.513c-0.336,0.697-1.121,1.076-1.806,1.328
	c-0.103,0.038,0.086,0.737,0.085,0.738c0.921-0.339,1.923-0.942,2.018-2.023c0.028-0.325,0.015-0.688-0.053-1.026
	C85.565,122.161,85.544,122.053,85.508,122.035z"/>
<path fill="#FFFFFF" d="M104.003,112.479c-0.889,1.736-1.777,3.471-2.665,5.206c0.06-0.116,0.608-0.056,0.703-0.242
	c0.889-1.734,1.777-3.471,2.665-5.205C104.646,112.354,104.098,112.295,104.003,112.479z"/>
<path fill="#FFFFFF" d="M107.069,132.726c-1.218,1.126-2.31,2.437-3.153,3.863c0.073-0.123,0.593-0.056,0.703-0.241
	c0.837-1.416,1.926-2.72,3.135-3.837C107.672,132.586,107.224,132.582,107.069,132.726z"/>
<path fill="#FFFFFF" d="M64.522,126.272c-2.41,1.161-4.744,2.686-6.788,4.523c0.176-0.159,0.889,0.22,1.155-0.02
	c2.028-1.822,4.354-3.337,6.746-4.489C65.475,126.365,64.83,126.125,64.522,126.272z"/>
<path fill="#FFFFFF" d="M52.904,126.162c-1.459,0.44-2.886,1.083-4.15,1.92c0.109-0.072,0.518,0.19,0.683,0.08
	c1.255-0.828,2.677-1.468,4.125-1.903C53.464,126.288,53.09,126.106,52.904,126.162z"/>
<path fill="#FFFFFF" d="M37.808,123.315c-1.956-0.545-4.044-0.843-6.117-0.814c0.179-0.002,0.407,0.574,0.677,0.569
	c2.056-0.026,4.135,0.272,6.076,0.813C38.313,123.848,38.057,123.385,37.808,123.315z"/>
<path fill="#FFFFFF" d="M25.324,116.864c-2.248-1.084-4.596-1.869-6.865-2.218c0.196,0.03,0.554,0.834,0.85,0.879
	c2.25,0.349,4.589,1.132,6.82,2.21C25.978,117.661,25.61,117.002,25.324,116.864z"/>
<path fill="#FFFFFF" d="M65.082,132.311c-1.321-0.391-1.66,0.878-1.841,1.942c-0.158-0.5-0.427-0.954-0.875-1.351
	c-0.495-0.438-1.16-0.764-1.805-0.912c0.011,0.003-0.076,0.716,0.04,0.742c0.91,0.211,2.151,0.889,2.588,1.837
	c-0.02,0.123-0.039,0.243-0.057,0.351c-0.015,0.082-0.016,0.17-0.01,0.259c-0.003,0.157,0.015,0.267,0.039,0.351
	c-0.108,0.067-0.215,0.149-0.326,0.251c-0.269,0.248-0.502,0.526-0.586,0.891c-0.01,0.044,0.207-0.118,0.227-0.134
	c0.081-0.065,0.305-0.207,0.33-0.317c0.033-0.141,0.093-0.274,0.163-0.399c0.076-0.023,0.157-0.036,0.235-0.039
	c0.194-0.009,0.385,0.059,0.563,0.143c-0.097,0.094-0.206,0.168-0.338,0.203c-0.146,0.057-0.38-0.025-0.506,0.095
	c-0.176,0.167-0.227,0.466-0.27,0.698c-0.07,0.371,0.06,0.701,0.182,1.049c0.128,0.365,0.256,0.728,0.363,1.1
	c0.043,0.168,0.078,0.339,0.102,0.511c0.034,0.206-0.106,0.79,0.101,0.251c-0.035,0.091-0.182,0.797-0.077,0.523
	c0.4-1.04,0.066-2.069-0.296-3.075c-0.052-0.14-0.099-0.281-0.143-0.423c-0.007-0.024-0.013-0.037-0.02-0.055
	c0.035,0.042,0.09,0.08,0.173,0.073c0.357-0.033,0.56-0.182,0.755-0.468c0.078-0.115,0.134-0.251,0.181-0.393
	c0.146-0.008,0.508-0.498,0.536-0.482c-0.134-0.073-0.26-0.12-0.381-0.155c0.027-0.153,0.003-0.113-0.036-0.01
	c-0.182-0.047-0.353-0.051-0.517-0.016c0.027-0.083,0.052-0.172,0.069-0.267c0.044-0.249-0.158-0.501-0.279-0.626
	c0.079-0.419,0.206-0.821,0.482-1.123c0.306-0.334,0.855-0.405,1.275-0.282C65.096,133.046,65.208,132.348,65.082,132.311z
	 M62.979,135.799C63.059,135.671,63.107,135.72,62.979,135.799L62.979,135.799z"/>
<path fill="#FFFFFF" d="M29.758,144.687c-0.684-0.115-1.692-0.325-1.914-1.091c-0.23-0.794,0.465-1.601,1.203-2.057
	c0.258-0.068,0.529-0.208,0.728-0.326c0.01-0.003,0.021-0.006,0.031-0.009c0.23-0.057,0.677-0.248,0.17-0.124
	c-0.006,0.002-0.013,0.004-0.019,0.005c0.008-0.017-0.02-0.017-0.09,0.011c-0.038,0.015-0.075,0.033-0.112,0.05
	c-0.082,0.027-0.167,0.06-0.257,0.097c-0.029,0.005-0.059,0.011-0.088,0.013c-0.266,0.014-0.404-0.199-0.456-0.433
	c-0.027-0.125-0.023-0.254,0.016-0.374c0.027,0,0.055-0.001,0.081,0.001c0.12,0.012,0.321-0.131,0.419-0.185
	c0.022-0.013,0.254-0.154,0.211-0.159c-0.221-0.021-0.433,0.044-0.633,0.13c-0.378,0.161-0.801,0.354-0.772,0.821
	c0.026,0.416,0.25,0.539,0.53,0.524c-1.308,0.742-2.645,2.084-0.971,2.957c1.66,0.866,4.121,0.648,5.937,0.525
	c0.148-0.011,0.675-0.218,0.607-0.213C32.848,144.954,31.274,144.94,29.758,144.687z"/>
<path fill="#FFFFFF" d="M92.377,119.723c-0.106,0.835-0.326,3.813,1.258,3.084c0.2-0.092,0.201-0.6,0.338-0.662
	c-1.578,0.726-1.36-2.202-1.252-3.052C92.705,119.212,92.404,119.51,92.377,119.723L92.377,119.723z"/>
<path d="M23.169,81.372"/>
<path fill="#2980BA" d="M1.541,59.31c0,32.702,26.605,59.309,59.309,59.309s59.309-26.606,59.309-59.309
	C120.158,26.606,93.552,0,60.849,0S1.541,26.606,1.541,59.31z"/>
<path fill="#FFFFFF" d="M3.028,59.31c0-31.884,25.938-57.821,57.821-57.821S118.67,27.426,118.67,59.31
	c0,31.882-25.938,57.821-57.821,57.821S3.028,91.191,3.028,59.31z"/>
<g>
	<path fill="#2980BA" d="M16.414,59.31c0,24.501,19.934,44.435,44.436,44.435s44.435-19.934,44.435-44.435
		c0-24.502-19.934-44.436-44.435-44.436S16.414,34.808,16.414,59.31z M17.901,59.31c0-23.682,19.266-42.948,42.948-42.948
		c23.681,0,42.948,19.267,42.948,42.948s-19.267,42.947-42.948,42.947C37.167,102.257,17.901,82.991,17.901,59.31z"/>
</g>
<g>
	<path fill="#2980BA" d="M14.943,67.398l-6.995,4.717l6.007-0.986c0.553-0.091,0.888-0.207,1.005-0.349
		c0.159-0.194,0.209-0.468,0.151-0.821l-0.053-0.319l0.246-0.039l0.514,3.129l-0.246,0.04l-0.052-0.318
		c-0.063-0.38-0.222-0.631-0.478-0.752c-0.158-0.074-0.488-0.069-0.992,0.014l-5.875,0.965c-0.397,0.064-0.678,0.156-0.84,0.273
		c-0.118,0.083-0.206,0.215-0.266,0.395c-0.059,0.18-0.058,0.453,0.002,0.82l-0.246,0.04L6.41,71.66l6.499-4.418l-7.563-2.054
		l-0.418-2.546l0.246-0.041l0.051,0.312c0.063,0.385,0.223,0.638,0.479,0.76c0.157,0.073,0.488,0.069,0.992-0.014l5.875-0.964
		c0.552-0.092,0.887-0.21,1.003-0.355c0.159-0.194,0.209-0.469,0.151-0.822l-0.051-0.312l0.245-0.04l0.627,3.818l-0.246,0.041
		l-0.052-0.318c-0.063-0.385-0.222-0.636-0.478-0.752c-0.158-0.074-0.488-0.07-0.992,0.013l-6.008,0.986l8.135,2.226L14.943,67.398z
		"/>
	<path fill="#2980BA" d="M11.455,54.034l-0.277,3.515l1.384,0.729c0.341,0.18,0.598,0.276,0.772,0.29
		c0.139,0.012,0.266-0.045,0.38-0.169c0.116-0.123,0.206-0.402,0.272-0.837l0.248,0.02l-0.226,2.858l-0.248-0.02
		c-0.037-0.385-0.105-0.637-0.203-0.757c-0.196-0.245-0.611-0.531-1.246-0.859l-7.22-3.782l0.019-0.234l7.801-2.565
		c0.627-0.206,1.039-0.406,1.236-0.6c0.197-0.193,0.321-0.474,0.373-0.843l0.248,0.02l-0.282,3.582l-0.248-0.02
		c0.01-0.363-0.031-0.612-0.124-0.747c-0.092-0.136-0.212-0.209-0.359-0.221c-0.197-0.016-0.514,0.049-0.952,0.194L11.455,54.034z
		 M10.944,54.183l-3.79,1.251l3.544,1.868L10.944,54.183z"/>
	<path fill="#2980BA" d="M6.749,46.976l-0.241-0.061l0.955-3.783l0.241,0.062l-0.081,0.318c-0.09,0.36-0.05,0.65,0.12,0.868
		c0.113,0.14,0.434,0.276,0.963,0.409l4.317,1.09c0.664,0.168,1.184,0.376,1.56,0.626c0.375,0.249,0.671,0.591,0.888,1.023
		c0.216,0.434,0.261,0.902,0.134,1.405c-0.103,0.408-0.285,0.704-0.546,0.888c-0.261,0.184-0.522,0.242-0.782,0.177
		c-0.212-0.054-0.359-0.148-0.44-0.285c-0.099-0.177-0.124-0.361-0.076-0.552c0.035-0.139,0.112-0.252,0.231-0.34
		c0.12-0.088,0.398-0.166,0.835-0.236c0.259-0.04,0.409-0.139,0.449-0.295c0.029-0.117-0.015-0.245-0.132-0.383
		c-0.117-0.139-0.358-0.254-0.723-0.346l-6.03-1.521c-0.447-0.113-0.749-0.159-0.906-0.14c-0.12,0.017-0.236,0.084-0.35,0.203
		c-0.151,0.161-0.253,0.345-0.306,0.554L6.749,46.976z"/>
	<path fill="#2980BA" d="M17.007,36.826l0.129-0.186l1.975,1.68l-2.744,6.498l-0.229-0.097l0.133-0.315
		c0.149-0.354,0.141-0.657-0.025-0.907c-0.096-0.143-0.382-0.315-0.861-0.518L9.97,40.695c-0.524-0.221-0.876-0.302-1.057-0.242
		c-0.25,0.085-0.441,0.285-0.576,0.604l-0.133,0.315l-0.229-0.097l1.604-3.801l0.229,0.097c-0.192,0.444-0.283,0.774-0.272,0.99
		c0.011,0.217,0.069,0.386,0.173,0.507c0.104,0.122,0.406,0.288,0.905,0.499l5.273,2.227c0.342,0.145,0.591,0.21,0.747,0.198
		c0.107-0.013,0.204-0.063,0.289-0.147c0.084-0.086,0.241-0.399,0.469-0.939l0.259-0.613c0.271-0.644,0.415-1.115,0.429-1.415
		c0.015-0.301-0.053-0.608-0.204-0.925S17.436,37.261,17.007,36.826z"/>
	<path fill="#2980BA" d="M21.708,33.477l0.213,0.128l-2.015,3.342l-0.212-0.129l0.167-0.276c0.194-0.321,0.241-0.612,0.141-0.871
		c-0.067-0.166-0.334-0.39-0.802-0.673l-5.038-3.037c-0.395-0.238-0.671-0.37-0.828-0.396c-0.119-0.02-0.249,0.01-0.389,0.086
		c-0.194,0.113-0.346,0.263-0.458,0.446l-0.166,0.276l-0.213-0.129l2.015-3.341l0.212,0.128l-0.17,0.282
		c-0.192,0.318-0.238,0.606-0.138,0.865c0.065,0.171,0.332,0.396,0.799,0.678l5.037,3.038c0.395,0.238,0.67,0.37,0.827,0.396
		c0.119,0.021,0.25-0.011,0.393-0.092c0.191-0.109,0.343-0.256,0.454-0.44L21.708,33.477z"/>
	<path fill="#2980BA" d="M18.784,22.381l2.456,1.973l-0.156,0.193c-0.521-0.315-0.987-0.504-1.397-0.566
		c-0.41-0.062-0.817-0.009-1.222,0.16c-0.405,0.168-0.737,0.413-0.995,0.734c-0.292,0.363-0.421,0.752-0.391,1.168
		c0.031,0.415,0.188,0.736,0.471,0.963c0.217,0.175,0.474,0.258,0.772,0.25c0.436-0.006,1.198-0.24,2.288-0.703
		c0.889-0.378,1.525-0.611,1.911-0.701s0.759-0.097,1.123-0.02c0.363,0.076,0.687,0.229,0.969,0.455
		c0.538,0.432,0.833,1.013,0.888,1.742c0.055,0.729-0.182,1.423-0.709,2.079c-0.165,0.206-0.337,0.388-0.514,0.544
		c-0.104,0.094-0.348,0.267-0.731,0.52c-0.383,0.252-0.611,0.423-0.684,0.514c-0.07,0.088-0.099,0.178-0.088,0.27
		c0.012,0.094,0.09,0.218,0.234,0.374l-0.155,0.193l-2.435-1.955l0.155-0.193c0.583,0.318,1.063,0.502,1.439,0.552
		s0.775-0.017,1.196-0.197c0.421-0.182,0.783-0.461,1.086-0.838c0.35-0.437,0.512-0.874,0.485-1.312
		c-0.027-0.438-0.198-0.784-0.512-1.036c-0.175-0.14-0.39-0.233-0.645-0.28c-0.255-0.047-0.541-0.031-0.857,0.048
		c-0.214,0.052-0.735,0.245-1.563,0.579s-1.446,0.549-1.855,0.643s-0.789,0.109-1.139,0.046c-0.351-0.063-0.673-0.213-0.966-0.449
		c-0.51-0.409-0.792-0.957-0.846-1.644s0.161-1.332,0.646-1.937c0.303-0.377,0.716-0.702,1.24-0.977
		c0.245-0.125,0.399-0.228,0.463-0.309c0.073-0.09,0.105-0.187,0.098-0.287c-0.008-0.102-0.08-0.235-0.216-0.402L18.784,22.381z"/>
	<path fill="#2980BA" d="M32.152,18.762l-2.821,2.115l0.368,1.521c0.09,0.374,0.188,0.631,0.293,0.771
		c0.083,0.111,0.209,0.17,0.378,0.175c0.168,0.005,0.438-0.112,0.808-0.351l0.149,0.199l-2.294,1.72l-0.149-0.198
		c0.264-0.282,0.409-0.5,0.434-0.653c0.054-0.309-0.005-0.81-0.178-1.503l-1.933-7.917l0.188-0.142l7.08,4.159
		c0.57,0.335,0.992,0.512,1.268,0.532c0.275,0.02,0.568-0.072,0.879-0.277l0.149,0.198l-2.875,2.155l-0.149-0.198
		c0.279-0.232,0.439-0.428,0.479-0.587c0.041-0.158,0.017-0.297-0.072-0.415c-0.118-0.158-0.376-0.353-0.775-0.586L32.152,18.762z
		 M31.703,18.478L28.26,16.46l0.939,3.895L31.703,18.478z"/>
	<path fill="#2980BA" d="M42.297,16.54l-6.227-5.697l2.367,5.611c0.217,0.517,0.409,0.815,0.575,0.896
		c0.226,0.109,0.504,0.095,0.835-0.046l0.297-0.125l0.097,0.229l-2.924,1.233l-0.096-0.229l0.297-0.125
		c0.355-0.15,0.562-0.363,0.62-0.642c0.035-0.17-0.047-0.49-0.246-0.961l-2.315-5.487c-0.157-0.372-0.311-0.623-0.463-0.754
		c-0.108-0.095-0.256-0.149-0.446-0.165c-0.188-0.016-0.454,0.05-0.797,0.193l-0.097-0.229l2.378-1.003l5.82,5.285l0.225-7.836
		l2.378-1.004l0.097,0.229l-0.291,0.123c-0.36,0.151-0.568,0.366-0.626,0.643c-0.035,0.171,0.046,0.492,0.245,0.963l2.315,5.487
		c0.217,0.516,0.411,0.813,0.581,0.893c0.226,0.109,0.504,0.094,0.834-0.046l0.291-0.122l0.096,0.229l-3.567,1.506l-0.097-0.229
		l0.297-0.126c0.359-0.15,0.566-0.364,0.62-0.641c0.035-0.17-0.047-0.491-0.245-0.961L42.76,8.021l-0.258,8.434L42.297,16.54z"/>
	<path fill="#2980BA" d="M54.494,10.039l-3.487,0.541l-0.391,1.517c-0.097,0.373-0.131,0.646-0.104,0.818
		c0.021,0.138,0.105,0.248,0.252,0.332c0.146,0.084,0.439,0.107,0.878,0.071l0.038,0.246l-2.836,0.439l-0.038-0.246
		c0.366-0.124,0.596-0.248,0.69-0.372c0.193-0.248,0.376-0.718,0.55-1.412l2.019-7.905l0.232-0.035l4.298,7.006
		c0.346,0.563,0.636,0.919,0.87,1.066c0.233,0.147,0.536,0.204,0.907,0.168l0.038,0.246l-3.554,0.552l-0.038-0.246
		c0.356-0.073,0.589-0.17,0.699-0.292c0.11-0.121,0.154-0.255,0.132-0.401c-0.031-0.194-0.167-0.488-0.409-0.882L54.494,10.039z
		 M54.231,9.576l-2.092-3.403l-1.003,3.884L54.231,9.576z"/>
	<path fill="#2980BA" d="M59.215,3.385l2.467,0.153l5.134,7.164l0.326-5.243c0.034-0.558-0.006-0.91-0.124-1.058
		c-0.154-0.197-0.41-0.308-0.766-0.33l-0.315-0.02l0.016-0.248L69.117,4l-0.015,0.248l-0.323-0.02
		c-0.383-0.024-0.664,0.075-0.838,0.298c-0.108,0.138-0.177,0.46-0.208,0.97l-0.477,7.663l-0.241-0.016L61.477,5.45l-0.349,5.598
		c-0.035,0.56,0.004,0.911,0.117,1.058c0.157,0.198,0.413,0.309,0.766,0.33l0.323,0.02l-0.016,0.248l-3.164-0.196l0.015-0.248
		l0.315,0.02c0.389,0.024,0.671-0.074,0.846-0.297c0.107-0.137,0.177-0.46,0.208-0.97l0.393-6.322
		c-0.245-0.324-0.432-0.54-0.562-0.647c-0.13-0.106-0.325-0.211-0.583-0.312c-0.127-0.049-0.322-0.081-0.586-0.098L59.215,3.385z"/>
	<path fill="#2980BA" d="M75.934,11.968l-3.391-0.98l-0.994,1.21c-0.245,0.299-0.391,0.531-0.439,0.699
		c-0.039,0.134-0.009,0.269,0.089,0.407c0.097,0.138,0.353,0.283,0.766,0.435l-0.069,0.239l-2.758-0.797l0.069-0.239
		c0.384,0.041,0.646,0.025,0.783-0.046c0.279-0.144,0.644-0.493,1.093-1.049l5.165-6.318l0.226,0.065l0.943,8.167
		c0.076,0.656,0.189,1.101,0.339,1.333c0.15,0.232,0.4,0.411,0.752,0.536l-0.069,0.238l-3.455-0.998l0.069-0.239
		c0.354,0.083,0.606,0.094,0.757,0.03c0.152-0.064,0.248-0.167,0.289-0.309c0.055-0.19,0.055-0.514,0.001-0.973L75.934,11.968z
		 M75.892,11.438l-0.462-3.969l-2.548,3.099L75.892,11.438z"/>
	<path fill="#2980BA" d="M83.668,13.092l3.713,2.033l1.252-2.287c0.224-0.408,0.346-0.691,0.366-0.849
		c0.015-0.12-0.022-0.25-0.109-0.39c-0.118-0.187-0.27-0.331-0.459-0.435l-0.282-0.154l0.119-0.219l3.419,1.872l-0.12,0.218
		l-0.282-0.154c-0.189-0.104-0.393-0.156-0.611-0.159c-0.161-0.006-0.298,0.043-0.413,0.146c-0.116,0.103-0.28,0.351-0.496,0.743
		l-2.824,5.157c-0.222,0.404-0.342,0.686-0.362,0.844c-0.015,0.119,0.02,0.248,0.103,0.385c0.121,0.189,0.276,0.336,0.465,0.439
		l0.283,0.154l-0.12,0.219l-3.418-1.872l0.12-0.218l0.283,0.154c0.326,0.179,0.616,0.213,0.871,0.102
		c0.167-0.072,0.381-0.348,0.645-0.827l1.333-2.434l-3.713-2.033l-1.333,2.434c-0.222,0.404-0.342,0.686-0.362,0.844
		c-0.015,0.12,0.022,0.25,0.109,0.39c0.116,0.187,0.27,0.331,0.458,0.435l0.289,0.158l-0.119,0.218l-3.425-1.875l0.12-0.218
		l0.282,0.155c0.33,0.181,0.623,0.215,0.877,0.104c0.163-0.074,0.375-0.351,0.639-0.83l2.823-5.157
		c0.224-0.408,0.346-0.691,0.366-0.85c0.015-0.119-0.02-0.248-0.103-0.386c-0.122-0.188-0.276-0.335-0.465-0.438l-0.283-0.155
		l0.12-0.219l3.425,1.875l-0.12,0.219l-0.289-0.158c-0.188-0.104-0.393-0.156-0.611-0.158c-0.156-0.004-0.292,0.046-0.409,0.147
		c-0.118,0.102-0.284,0.349-0.499,0.741L83.668,13.092z"/>
	<path fill="#2980BA" d="M97.139,29.691l-1.72-1.721l0.832-5.193c-0.168-0.155-0.303-0.284-0.404-0.386
		c-0.042-0.041-0.084-0.086-0.131-0.135c-0.046-0.049-0.092-0.101-0.14-0.154l-1.873,1.872c-0.405,0.405-0.613,0.701-0.623,0.889
		c-0.019,0.26,0.092,0.51,0.333,0.75l0.251,0.253l-0.176,0.175l-2.761-2.761l0.176-0.176l0.243,0.242
		c0.272,0.272,0.556,0.379,0.851,0.319c0.165-0.032,0.431-0.232,0.798-0.6l4.163-4.162c0.405-0.405,0.613-0.701,0.623-0.889
		c0.015-0.263-0.099-0.517-0.343-0.761l-0.242-0.242l0.176-0.176l2.347,2.348c0.685,0.685,1.139,1.239,1.364,1.663
		c0.225,0.425,0.317,0.884,0.276,1.378c-0.041,0.494-0.248,0.927-0.618,1.298c-0.396,0.396-0.869,0.61-1.418,0.644
		s-1.156-0.161-1.817-0.582l-0.519,3.179c-0.12,0.729-0.141,1.272-0.062,1.63c0.079,0.358,0.276,0.732,0.589,1.122L97.139,29.691z
		 M95.875,21.803c0.06,0.061,0.112,0.113,0.154,0.159c0.043,0.046,0.079,0.083,0.107,0.112c0.615,0.614,1.211,0.944,1.789,0.99
		s1.074-0.137,1.485-0.549c0.402-0.402,0.603-0.855,0.604-1.359c0-0.503-0.208-0.963-0.623-1.378
		c-0.185-0.184-0.462-0.402-0.836-0.655L95.875,21.803z"/>
	<path fill="#2980BA" d="M103.239,33.409l-1.919-2.955l-1.541,0.265c-0.38,0.064-0.642,0.145-0.789,0.239
		c-0.116,0.076-0.183,0.197-0.199,0.365s0.082,0.444,0.294,0.83l-0.208,0.135l-1.561-2.403l0.208-0.136
		c0.264,0.282,0.471,0.441,0.622,0.477c0.305,0.074,0.809,0.049,1.511-0.076l8.026-1.395l0.128,0.196l-4.625,6.781
		c-0.371,0.545-0.577,0.954-0.615,1.228c-0.039,0.272,0.033,0.571,0.217,0.896l-0.208,0.135l-1.955-3.012l0.208-0.135
		c0.213,0.294,0.396,0.467,0.553,0.518c0.155,0.051,0.295,0.036,0.42-0.044c0.165-0.107,0.377-0.352,0.635-0.733L103.239,33.409z
		 M103.554,32.981l2.244-3.298l-3.948,0.675L103.554,32.981z"/>
	<path fill="#2980BA" d="M108.96,40.463l-1.954,4.31c-0.324,0.707-0.511,1.278-0.562,1.713c-0.051,0.434-0.021,0.838,0.09,1.213
		l-0.232,0.087l-1.512-4.058l0.232-0.086c0.091,0.242,0.197,0.402,0.318,0.479c0.121,0.076,0.232,0.096,0.333,0.058
		c0.101-0.037,0.184-0.091,0.249-0.16s0.165-0.256,0.301-0.56l1.815-4.028l-2.749,1.024c-0.432,0.16-0.707,0.294-0.825,0.399
		c-0.089,0.081-0.146,0.203-0.171,0.365c-0.034,0.219-0.013,0.428,0.062,0.629l0.108,0.289l-0.233,0.087l-1.354-3.635l0.232-0.087
		l0.113,0.302c0.131,0.352,0.33,0.569,0.595,0.652c0.171,0.051,0.513-0.02,1.024-0.21l5.51-2.053
		c0.431-0.161,0.708-0.295,0.831-0.403c0.085-0.079,0.142-0.198,0.168-0.356c0.031-0.222,0.01-0.434-0.064-0.635l-0.113-0.302
		l0.232-0.087l1.354,3.636l-0.232,0.087l-0.107-0.29c-0.073-0.196-0.193-0.369-0.358-0.518c-0.116-0.105-0.25-0.158-0.403-0.158
		c-0.152,0-0.439,0.077-0.858,0.234l-2.609,0.972c0.11,0.055,0.484,0.242,1.119,0.564c1.604,0.82,2.646,1.289,3.125,1.407
		c0.21,0.051,0.378,0.052,0.503,0.006c0.097-0.036,0.165-0.111,0.206-0.228c0.04-0.115,0.022-0.278-0.057-0.487l-0.073-0.195
		l0.233-0.086l1.167,3.132l-0.233,0.087c-0.072-0.184-0.16-0.342-0.263-0.476s-0.26-0.285-0.474-0.454
		c-0.213-0.169-0.526-0.357-0.938-0.566c-0.119-0.062-0.707-0.327-1.765-0.797L108.96,40.463z"/>
	<path fill="#2980BA" d="M116.255,53.208l0.435,3.148l-0.246,0.034l-0.024-0.173c-0.016-0.115-0.09-0.277-0.223-0.484
		c-0.133-0.208-0.307-0.39-0.523-0.545c-0.216-0.156-0.558-0.337-1.024-0.544l-3.729-1.703l-2.264,0.313
		c-0.555,0.076-0.893,0.186-1.013,0.329c-0.163,0.194-0.219,0.474-0.169,0.837l0.04,0.294l-0.246,0.034l-0.529-3.835l0.247-0.034
		l0.044,0.32c0.052,0.381,0.205,0.636,0.458,0.764c0.156,0.078,0.487,0.082,0.992,0.013l2.137-0.295l3.439-2.998
		c0.403-0.354,0.653-0.592,0.75-0.711s0.201-0.354,0.31-0.704c0.032-0.096,0.037-0.227,0.014-0.396l0.247-0.034l0.532,3.861
		l-0.246,0.034l-0.028-0.2c-0.028-0.209-0.104-0.394-0.226-0.556c-0.122-0.162-0.281-0.229-0.475-0.202
		c-0.161,0.021-0.43,0.197-0.81,0.525l-2.649,2.285l3.028,1.387c0.453,0.209,0.782,0.299,0.986,0.271
		c0.125-0.018,0.231-0.064,0.32-0.143c0.088-0.077,0.152-0.18,0.191-0.308c0.04-0.128,0.042-0.312,0.009-0.551L116.255,53.208z"/>
	<path fill="#2980BA" d="M110.392,62.938l0.161-3.524l-1.409-0.684c-0.347-0.168-0.607-0.256-0.782-0.264
		c-0.139-0.007-0.264,0.054-0.375,0.181c-0.111,0.127-0.192,0.409-0.244,0.847l-0.248-0.011l0.13-2.866l0.249,0.011
		c0.049,0.384,0.125,0.634,0.229,0.75c0.204,0.238,0.629,0.511,1.275,0.818l7.346,3.543l-0.011,0.235l-7.717,2.824
		c-0.62,0.227-1.025,0.44-1.216,0.641c-0.191,0.2-0.306,0.485-0.346,0.856l-0.248-0.012l0.164-3.592l0.248,0.011
		c0.002,0.363,0.052,0.611,0.148,0.743c0.097,0.132,0.22,0.202,0.367,0.208c0.197,0.009,0.512-0.065,0.945-0.225L110.392,62.938z
		 M110.897,62.772l3.75-1.376l-3.606-1.752L110.897,62.772z"/>
	<path fill="#2980BA" d="M114.498,74.837l-2.108-0.354l0.054-0.25c0.378,0.032,0.655,0.023,0.831-0.025
		c0.283-0.081,0.509-0.221,0.678-0.42c0.169-0.199,0.293-0.482,0.374-0.851l0.272-1.253l-6.8-1.476
		c-0.547-0.119-0.901-0.135-1.063-0.046c-0.22,0.127-0.367,0.363-0.442,0.709l-0.068,0.309l-0.242-0.054l0.819-3.774l0.243,0.054
		l-0.068,0.315c-0.081,0.376-0.026,0.667,0.168,0.874c0.119,0.126,0.428,0.244,0.927,0.353l6.8,1.476l0.232-1.069
		c0.09-0.416,0.124-0.718,0.101-0.906c-0.034-0.245-0.152-0.476-0.353-0.688s-0.5-0.379-0.896-0.497l0.054-0.249l2.065,0.558
		L114.498,74.837z"/>
</g>
<g>
	<path fill="#9B1B2B" d="M37.73,106.558l4.603-4.074l3.151,1.545l-0.104,0.211l-0.251-0.122c-0.229-0.112-0.431-0.162-0.607-0.149
		c-0.121,0.007-0.241,0.059-0.36,0.156c-0.087,0.07-0.225,0.299-0.413,0.684l-2.502,5.104c-0.194,0.395-0.294,0.652-0.3,0.772
		c-0.007,0.119,0.036,0.247,0.129,0.386c0.093,0.137,0.248,0.259,0.465,0.365l0.251,0.123l-0.104,0.212l-4.042-1.98l0.104-0.212
		l0.251,0.123c0.228,0.111,0.43,0.161,0.606,0.148c0.121-0.007,0.242-0.061,0.363-0.161c0.086-0.071,0.225-0.301,0.416-0.689
		l2.813-5.737l-6.431,5.606l-0.137-0.066l0.422-8.489l-2.672,5.453c-0.187,0.381-0.292,0.619-0.315,0.716
		c-0.044,0.215-0.013,0.422,0.094,0.623c0.106,0.201,0.337,0.388,0.691,0.563l-0.104,0.211l-2.649-1.298l0.104-0.212l0.08,0.039
		c0.169,0.088,0.342,0.139,0.52,0.152c0.177,0.014,0.328-0.011,0.453-0.071c0.125-0.062,0.251-0.172,0.381-0.33
		c0.028-0.038,0.126-0.23,0.297-0.577l2.401-4.898c0.192-0.393,0.291-0.647,0.297-0.765c0.005-0.117-0.038-0.245-0.131-0.383
		s-0.248-0.26-0.465-0.366l-0.246-0.12l0.104-0.211l3.163,1.55L37.73,106.558z"/>
	<path fill="#9B1B2B" d="M53.056,111.815l-3.004-0.486l-0.492,0.77c-0.162,0.257-0.257,0.476-0.286,0.655
		c-0.039,0.238,0.029,0.43,0.204,0.573c0.102,0.085,0.372,0.181,0.81,0.285l-0.038,0.232l-2.829-0.458l0.038-0.231
		c0.313,0.004,0.584-0.083,0.814-0.258s0.542-0.563,0.935-1.165l4.141-6.294l0.119,0.02l1.938,7.471
		c0.186,0.708,0.358,1.163,0.519,1.365c0.121,0.152,0.31,0.26,0.566,0.323l-0.038,0.231l-4.115-0.665l0.038-0.232l0.169,0.027
		c0.331,0.054,0.57,0.045,0.719-0.025c0.103-0.052,0.164-0.141,0.185-0.267c0.012-0.074,0.012-0.154,0-0.238
		c-0.002-0.038-0.04-0.206-0.112-0.5L53.056,111.815z M52.918,111.316l-0.793-3.135l-1.779,2.719L52.918,111.316z"/>
	<path fill="#9B1B2B" d="M64.912,110.768l0.246,2.403c0.047,0.464,0.106,0.753,0.175,0.866c0.069,0.114,0.18,0.2,0.33,0.258
		c0.151,0.057,0.422,0.065,0.814,0.025l0.024,0.233l-4.388,0.449l-0.024-0.233c0.396-0.041,0.661-0.105,0.795-0.193
		c0.133-0.088,0.223-0.194,0.268-0.318c0.044-0.124,0.044-0.417-0.003-0.881l-0.57-5.564c-0.047-0.464-0.105-0.753-0.175-0.867
		c-0.069-0.114-0.179-0.2-0.33-0.258c-0.151-0.057-0.422-0.065-0.814-0.025l-0.024-0.233l3.983-0.407
		c1.037-0.106,1.804-0.113,2.299-0.019s0.915,0.319,1.258,0.674c0.343,0.354,0.541,0.79,0.593,1.309
		c0.065,0.633-0.109,1.179-0.522,1.638c-0.265,0.292-0.651,0.53-1.161,0.714l2.359,2.691c0.308,0.348,0.523,0.562,0.648,0.644
		c0.185,0.112,0.393,0.164,0.622,0.153l0.024,0.233l-2.7,0.276l-3.164-3.625L64.912,110.768z M64.481,106.563l0.384,3.757
		l0.36-0.037c0.586-0.061,1.019-0.158,1.299-0.296c0.279-0.137,0.488-0.354,0.626-0.652c0.138-0.298,0.184-0.672,0.137-1.122
		c-0.067-0.654-0.269-1.121-0.606-1.402c-0.338-0.28-0.845-0.386-1.524-0.316L64.481,106.563z"/>
	<path fill="#9B1B2B" d="M80.554,108.609l-2.841,1.093l-0.037,0.912c-0.011,0.304,0.017,0.541,0.082,0.71
		c0.086,0.226,0.241,0.357,0.464,0.394c0.13,0.022,0.413-0.031,0.844-0.16l0.084,0.219l-2.675,1.028l-0.084-0.22
		c0.271-0.154,0.462-0.365,0.573-0.633c0.11-0.267,0.184-0.759,0.222-1.477l0.41-7.522l0.113-0.042l5.434,5.479
		c0.517,0.519,0.896,0.824,1.136,0.918c0.182,0.07,0.399,0.069,0.652-0.006l0.084,0.22l-3.89,1.495l-0.084-0.219l0.16-0.063
		c0.313-0.119,0.515-0.247,0.608-0.383c0.063-0.098,0.071-0.205,0.025-0.323c-0.027-0.071-0.066-0.141-0.12-0.206
		c-0.022-0.032-0.138-0.158-0.349-0.377L80.554,108.609z M80.184,108.249l-2.263-2.31l-0.169,3.243L80.184,108.249z"/>
</g>
<path fill="#9B1B2B" d="M93.219,59.591c0-0.776-0.037-1.543-0.092-2.306l7-2.304c-0.228-2.086-0.617-4.124-1.156-6.1l-7.484,0.332
	c-0.706-2.054-1.612-4.014-2.702-5.855l5.632-4.91c-1.171-1.882-2.495-3.658-3.957-5.312l-6.615,3.852
	c-1.273-1.271-2.658-2.429-4.13-3.471l2.872-7.225c-1.892-1.25-3.897-2.341-5.998-3.256l-4.765,6.405
	c-1.803-0.631-3.678-1.11-5.612-1.41l-0.843-8.006c-1.493-0.171-3.011-0.262-4.55-0.262c-0.936,0-1.863,0.035-2.783,0.099
	L57.29,27.91c-1.841,0.229-3.635,0.609-5.365,1.139l-4.702-6.885c-2.085,0.764-4.088,1.699-5.992,2.787l2.951,7.672
	c-1.607,1.021-3.119,2.178-4.514,3.461l-7.262-4.273c-1.496,1.545-2.866,3.211-4.096,4.983l5.848,5.941
	c-1.01,1.622-1.876,3.343-2.586,5.143l-8.25-1.153c-0.714,2.129-1.253,4.338-1.598,6.611l7.838,2.583
	c-0.138,1.205-0.217,2.429-0.217,3.672c0,0.618,0.022,1.231,0.057,1.842l-7.829,2.74c0.25,2.031,0.651,4.016,1.196,5.939
	l8.397,0.114c0.531,1.504,1.17,2.957,1.911,4.348l-6.031,5.314c1.136,1.86,2.421,3.62,3.839,5.261l7.139-3.685
	c1.239,1.317,2.585,2.533,4.032,3.625l-2.828,7.352c2.081,1.358,4.296,2.526,6.624,3.479l4.381-6.357
	c1.558,0.575,3.174,1.028,4.836,1.355l0.512,7.59c1.714,0.227,3.462,0.346,5.238,0.346c0.846,0,1.686-0.029,2.519-0.082l0.9-7.386
	c1.895-0.174,3.74-0.516,5.525-1.006l3.96,6.318c2.233-0.771,4.375-1.735,6.406-2.874l-2.166-6.998
	c1.917-1.177,3.696-2.554,5.318-4.097l5.439,4.603c1.541-1.535,2.956-3.196,4.228-4.967l-4.839-5.455
	c1.131-1.749,2.095-3.614,2.872-5.576l7.18,1.014c0.728-2.085,1.286-4.25,1.658-6.478l-6.831-2.491
	C93.134,62.136,93.219,60.873,93.219,59.591z M61.207,81.499c-12.113,0-21.932-9.818-21.932-21.931
	c0-12.113,9.819-21.933,21.932-21.933s21.932,9.819,21.932,21.933C83.138,71.681,73.319,81.499,61.207,81.499z"/>
<path fill="#2980BA" d="M64.204,44.047c0.492-0.474,0.798-1.138,0.798-1.873c0-1.11-0.695-2.055-1.673-2.43v-0.328
	c0-0.565-0.458-1.023-1.022-1.023c-0.564,0-1.022,0.458-1.022,1.023v0.408c-0.878,0.418-1.487,1.312-1.487,2.35
	c0,0.703,0.28,1.34,0.733,1.809l-9.286,18.456c0,0-0.651,1.146,0,1.798l10.818-19.484c0.11,0.015,0.222,0.024,0.337,0.024
	c0.079,0,0.155-0.005,0.232-0.012c1.41,3.223,4.537,10.351,6.275,14.203c2.293,5.082,3.099,5.64,3.099,5.64L64.204,44.047z"/>
<path fill="#2980BA" d="M73.639,70.226l-1.57,1.569c-0.387,0.388-1.016,0.388-1.402,0c-0.387-0.387-0.387-1.015,0-1.402l1.479-1.479
	c-0.277-0.097-0.574-0.153-0.884-0.153c-1.213,0-2.235,0.813-2.557,1.922h-15.43c-0.322-1.109-1.344-1.922-2.557-1.922
	c-1.472,0-2.665,1.193-2.665,2.665c0,0.433,0.105,0.839,0.288,1.2l1.57-1.57c0.387-0.387,1.015-0.387,1.402,0
	c0.387,0.388,0.387,1.016,0,1.403l-1.479,1.479c0.277,0.098,0.574,0.153,0.884,0.153c1.213,0,2.235-0.812,2.557-1.921h15.43
	c0.322,1.109,1.344,1.921,2.557,1.921c1.472,0,2.665-1.193,2.665-2.665C73.926,70.993,73.821,70.586,73.639,70.226z"/>
<polygon fill="#2980BA" points="63.259,63.601 63.265,63.783 61.898,64.64 60.473,63.885 60.415,62.272 61.781,61.415 
	63.012,62.067 63.863,62.067 62.956,60.494 62.956,52.957 60.912,52.957 60.912,52.089 62.956,52.089 62.956,51.346 60.102,51.346 
	60.102,60.494 58.675,62.966 60.102,65.438 60.102,67.583 62.956,67.583 62.956,65.438 64.015,63.601 "/>
<g>
	<path fill="#2980BA" d="M98.436,80.528l-3.684-3.685l-0.363-0.362l-0.391,0.331c-0.042,0.035-4.394,3.59-11.317,1.788
		c-0.957-0.249-1.877-0.52-2.767-0.781c-5.771-1.696-10.768-3.159-19.064,3.578c-8.296-6.737-13.294-5.274-19.064-3.578
		c-0.89,0.262-1.81,0.532-2.767,0.781c-6.449,1.677-10.664-1.289-11.248-1.733l-0.308-0.54l-0.516,0.517l-3.684,3.685l-0.824,0.823
		l1.159,0.125l34.198,3.686c0,0.002,0.001,0.003,0.001,0.004c0.015,0.088,0.033,0.175,0.055,0.261
		c0.001,0.005,0.002,0.009,0.003,0.013c0.022,0.086,0.048,0.17,0.078,0.253c0.001,0.003,0.002,0.005,0.003,0.009
		c0.179,0.498,0.48,0.937,0.87,1.279c0.013,0.012,0.025,0.023,0.039,0.035c0.047,0.039,0.097,0.077,0.146,0.115
		c0.027,0.021,0.053,0.04,0.08,0.06c0.045,0.031,0.091,0.062,0.138,0.091c0.035,0.021,0.069,0.043,0.105,0.063
		c0.044,0.025,0.088,0.049,0.133,0.072c0.042,0.021,0.083,0.041,0.125,0.06c0.043,0.021,0.086,0.039,0.13,0.057
		c0.048,0.02,0.096,0.036,0.145,0.053c0.042,0.015,0.083,0.029,0.125,0.041c0.054,0.017,0.108,0.029,0.164,0.043
		c0.04,0.009,0.079,0.02,0.119,0.027c0.063,0.012,0.127,0.021,0.192,0.029c0.034,0.004,0.066,0.011,0.101,0.014
		c0.099,0.01,0.2,0.015,0.301,0.015s0.202-0.005,0.301-0.015c0.034-0.003,0.066-0.01,0.1-0.014c0.064-0.009,0.129-0.018,0.192-0.029
		c0.04-0.008,0.079-0.019,0.117-0.027c0.056-0.014,0.112-0.026,0.166-0.043c0.042-0.012,0.082-0.026,0.123-0.04
		c0.049-0.017,0.099-0.035,0.147-0.054c0.043-0.018,0.084-0.036,0.126-0.055c0.044-0.021,0.087-0.041,0.13-0.063
		c0.043-0.021,0.086-0.045,0.128-0.068c0.038-0.022,0.075-0.045,0.112-0.068c0.045-0.028,0.088-0.057,0.131-0.086
		c0.031-0.021,0.06-0.044,0.089-0.066c0.046-0.036,0.093-0.071,0.137-0.108c0.019-0.017,0.036-0.033,0.055-0.05
		c0.313-0.279,0.569-0.621,0.75-1.006c0.003-0.007,0.006-0.014,0.01-0.021c0.034-0.074,0.064-0.15,0.092-0.227
		c0.004-0.012,0.008-0.021,0.012-0.031c0.027-0.076,0.05-0.154,0.071-0.232c0.003-0.012,0.006-0.024,0.009-0.036
		c0.02-0.079,0.037-0.159,0.051-0.24c0.001-0.004,0.001-0.008,0.002-0.013l34.199-3.686l1.158-0.125L98.436,80.528z"/>
	<path fill="#FFFFFF" d="M63.331,84.103l-0.499,0.054v0.501h0c0,1.093-0.889,1.982-1.982,1.982s-1.983-0.89-1.983-1.982h0v-0.501
		l-0.498-0.054l-33.493-3.61l2.518-2.518c1.302,0.906,5.578,3.352,11.905,1.706c0.974-0.253,1.903-0.526,2.801-0.791
		c5.776-1.698,10.338-3.04,18.393,3.654l0.357,0.357l0.356-0.357c8.055-6.694,12.617-5.353,18.394-3.654
		c0.898,0.265,1.827,0.538,2.801,0.791c6.328,1.646,10.603-0.8,11.905-1.706l2.518,2.518L63.331,84.103z"/>
</g>
</svg>
